<svg width="720" height="900" viewBox="0 0 720 900" fill="none" xmlns="http://www.w3.org/2000/svg">
  <rect width="720" height="900" fill="#07111D"/>
  <circle cx="360" cy="330" r="150" fill="url(#face)"/>
  <path d="M184 742C206 612 278 546 360 546C442 546 514 612 536 742H184Z" fill="url(#body)"/>
  <circle cx="292" cy="320" r="16" fill="#051017"/>
  <circle cx="428" cy="320" r="16" fill="#051017"/>
  <path d="M310 407C340 435 382 435 412 407" stroke="#051017" stroke-width="18" stroke-linecap="round"/>
  <path d="M224 298C246 210 302 158 378 158C460 158 520 222 522 313C478 279 430 262 377 262C320 262 270 274 224 298Z" fill="#101827"/>
  <rect x="76" y="76" width="568" height="748" rx="42" stroke="url(#stroke)" stroke-width="4"/>
  <path d="M84 692C170 650 254 656 336 710C424 768 520 764 636 700" stroke="#4DF4FF" stroke-opacity=".28" stroke-width="3"/>
  <path d="M92 176C196 206 288 202 368 164C456 122 548 132 628 192" stroke="#FF4FD8" stroke-opacity=".26" stroke-width="3"/>
  <text x="360" y="815" text-anchor="middle" fill="#F4F7FB" font-family="Inter, Arial, sans-serif" font-size="42" font-weight="800">DHRUV HOODA</text>
  <text x="360" y="858" text-anchor="middle" fill="#9AA7BA" font-family="Inter, Arial, sans-serif" font-size="24" letter-spacing="5">WEB DEVELOPER</text>
  <defs>
    <linearGradient id="face" x1="210" y1="180" x2="510" y2="480" gradientUnits="userSpaceOnUse">
      <stop stop-color="#4DF4FF"/>
      <stop offset=".52" stop-color="#E6FBFF"/>
      <stop offset="1" stop-color="#FF4FD8"/>
    </linearGradient>
    <linearGradient id="body" x1="184" y1="546" x2="536" y2="742" gradientUnits="userSpaceOnUse">
      <stop stop-color="#4B7DFF"/>
      <stop offset=".54" stop-color="#111A2C"/>
      <stop offset="1" stop-color="#FF4FD8"/>
    </linearGradient>
    <linearGradient id="stroke" x1="76" y1="76" x2="644" y2="824" gradientUnits="userSpaceOnUse">
      <stop stop-color="#4DF4FF"/>
      <stop offset=".48" stop-color="#FF4FD8"/>
      <stop offset="1" stop-color="#A8FF60"/>
    </linearGradient>
  </defs>
</svg>
