<svg xmlns="http://www.w3.org/2000/svg" viewBox="0 0 160 160">
  <defs>
    <linearGradient id="bg" x1="0" x2="1" y1="0" y2="1">
      <stop offset="0" stop-color="#c8ddff"/>
      <stop offset="1" stop-color="#3f6f91"/>
    </linearGradient>
  </defs>
  <rect width="160" height="160" fill="#111"/>
  <circle cx="80" cy="72" r="62" fill="url(#bg)"/>
  <path d="M31 158c5-35 27-55 49-55s44 20 49 55z" fill="#faf7f3"/>
  <circle cx="80" cy="76" r="34" fill="#8f5938"/>
  <path d="M43 67c0-25 17-42 39-42 18 0 33 12 36 34-28-9-52-6-75 8z" fill="#16100d"/>
  <path d="M47 62c11-21 31-31 57-27 8 6 13 14 15 24-28-8-51-6-72 3z" fill="#16100d"/>
  <circle cx="68" cy="78" r="4" fill="#111"/>
  <circle cx="93" cy="78" r="4" fill="#111"/>
  <path d="M69 96c8 7 17 7 25 0" fill="none" stroke="#422314" stroke-width="5" stroke-linecap="round"/>
</svg>
